<?xml version="1.0" encoding="UTF-8" standalone="no"?>
<!-- Created with Inkscape (http://www.inkscape.org/) -->
<svg
   xmlns:dc="http://purl.org/dc/elements/1.1/"
   xmlns:cc="http://creativecommons.org/ns#"
   xmlns:rdf="http://www.w3.org/1999/02/22-rdf-syntax-ns#"
   xmlns:svg="http://www.w3.org/2000/svg"
   xmlns="http://www.w3.org/2000/svg"
   xmlns:sodipodi="http://sodipodi.sourceforge.net/DTD/sodipodi-0.dtd"
   xmlns:inkscape="http://www.inkscape.org/namespaces/inkscape"
   width="744.09448819"
   height="1052.3622047"
   id="svg2"
   sodipodi:version="0.32"
   inkscape:version="0.46"
   sodipodi:docname="purity.svg"
   inkscape:output_extension="org.inkscape.output.svg.inkscape">
  <defs
     id="defs4">
    <inkscape:perspective
       sodipodi:type="inkscape:persp3d"
       inkscape:vp_x="0 : 526.18109 : 1"
       inkscape:vp_y="0 : 1000 : 0"
       inkscape:vp_z="744.09448 : 526.18109 : 1"
       inkscape:persp3d-origin="372.04724 : 350.78739 : 1"
       id="perspective10" />
    <inkscape:perspective
       id="perspective2447"
       inkscape:persp3d-origin="372.04724 : 350.78739 : 1"
       inkscape:vp_z="744.09448 : 526.18109 : 1"
       inkscape:vp_y="0 : 1000 : 0"
       inkscape:vp_x="0 : 526.18109 : 1"
       sodipodi:type="inkscape:persp3d" />
    <inkscape:perspective
       id="perspective2462"
       inkscape:persp3d-origin="372.04724 : 350.78739 : 1"
       inkscape:vp_z="744.09448 : 526.18109 : 1"
       inkscape:vp_y="0 : 1000 : 0"
       inkscape:vp_x="0 : 526.18109 : 1"
       sodipodi:type="inkscape:persp3d" />
  </defs>
  <sodipodi:namedview
     id="base"
     pagecolor="#ffffff"
     bordercolor="#666666"
     borderopacity="1.0"
     gridtolerance="10000"
     guidetolerance="10"
     objecttolerance="10"
     inkscape:pageopacity="0.0"
     inkscape:pageshadow="2"
     inkscape:zoom="5.6"
     inkscape:cx="380.56347"
     inkscape:cy="545.66774"
     inkscape:document-units="px"
     inkscape:current-layer="layer1"
     showgrid="false"
     inkscape:window-width="640"
     inkscape:window-height="680"
     inkscape:window-x="0"
     inkscape:window-y="24" />
  <metadata
     id="metadata7">
    <rdf:RDF>
      <cc:Work
         rdf:about="">
        <dc:format>image/svg+xml</dc:format>
        <dc:type
           rdf:resource="http://purl.org/dc/dcmitype/StillImage" />
      </cc:Work>
    </rdf:RDF>
  </metadata>
  <g
     inkscape:label="Layer 1"
     inkscape:groupmode="layer"
     id="layer1">
    <path
       style="fill:#000000"
       d="M 377.93992,531.06754 C 377.64553,530.59121 378.81891,530.36614 380.54743,530.5674 C 384.77948,531.06015 385.44143,531.9336 381.58282,531.9336 C 379.87362,531.9336 378.23431,531.54387 377.93992,531.06754 z M 386.28214,530.6086 C 386.87339,530.01735 387.32862,528.6111 387.29375,527.4836 C 387.23244,525.50075 387.20168,525.50476 386.35471,527.60592 C 385.67866,529.28307 384.95228,529.62966 383.1681,529.12643 L 380.85714,528.47461 L 383.1952,528.12302 C 385.1453,527.82976 385.42837,527.35355 384.90119,525.25308 L 384.26913,522.73474 L 387.2175,524.83417 C 390.7489,527.34875 393.56039,527.62684 392.69671,525.37613 C 392.368,524.51952 391.48302,524.05505 390.73009,524.34398 C 389.9651,524.63754 388.63338,523.75863 387.71164,522.35188 L 386.06216,519.83445 L 384.21624,522.63403 C 382.85429,524.6996 382.36859,524.97478 382.36373,523.6836 C 382.35418,521.1469 380.57322,521.53392 380.06287,524.1836 C 379.75621,525.77573 379.58969,525.46364 379.49332,523.11621 C 379.37002,520.11247 379.56913,519.86611 381.5993,520.51046 C 383.62662,521.1539 383.70517,521.05788 382.41915,519.50832 C 381.63689,518.56575 380.17792,518.00871 379.177,518.27046 C 376.97097,518.84735 376.80524,517.63652 378.85714,515.9336 C 379.72173,515.21605 380.35714,515.11886 380.35714,515.70417 C 380.35714,516.26267 381.09579,517.00307 381.99858,517.3495 C 383.31743,517.85559 383.41057,517.70291 382.4725,516.5726 C 381.83035,515.79886 381.24379,513.53856 381.16902,511.5497 C 381.09213,509.50435 380.518,507.9336 379.84729,507.9336 C 377.65437,507.9336 378.32752,501.58822 380.80205,498.9336 C 383.29396,496.26034 385.04819,491.9336 383.64014,491.9336 C 383.17166,491.9336 381.99089,493.2836 381.01621,494.9336 C 379.00484,498.33857 376.63384,499.15362 378.41349,495.8283 C 379.86219,493.12138 378.78263,487.31227 376.56693,485.89198 C 375.10489,484.9548 375.1965,484.86834 377.19919,485.29525 C 379.45492,485.7761 379.47685,485.72336 377.7942,483.86405 C 376.1211,482.01529 376.1356,481.9336 378.13705,481.9336 C 379.28649,481.9336 381.3337,482.35439 382.68642,482.86869 C 385.65381,483.99689 388.87885,489.81189 387.37257,491.31817 C 386.81408,491.87666 386.35714,493.39095 386.35714,494.68326 C 386.35714,495.97557 385.64165,498.41652 384.76717,500.10758 C 383.43899,502.676 383.39783,503.39911 384.51717,504.49945 C 386.4019,506.35218 392.64962,504.27207 394.03829,501.3295 C 394.91987,499.46143 394.82809,499.18172 393.47416,499.61035 C 392.07305,500.05391 392.05743,499.97819 393.35714,499.04325 C 394.18214,498.44978 395.88464,497.95734 397.14047,497.94891 C 399.31034,497.93436 399.26064,498.09511 396.14047,501.1836 C 394.33464,502.9711 390.9498,505.3336 388.61861,506.4336 C 383.96076,508.63147 383.70637,509.25231 385.95525,512.9336 L 387.48248,515.4336 L 386.96784,513.00924 C 386.38036,510.2418 389.43472,506.9336 392.5773,506.9336 C 393.63008,506.9336 396.01454,505.31864 397.87611,503.34481 C 399.73768,501.37097 401.69403,500.02377 402.22355,500.35104 C 402.75307,500.6783 403.35722,500.43336 403.5661,499.80672 C 403.77498,499.18008 405.3922,498.61477 407.15992,498.55049 C 409.57624,498.46261 410.23306,498.0613 409.8063,496.9336 C 409.35159,495.73203 409.48918,495.68229 410.49789,496.6836 C 411.19048,497.3711 412.4613,497.9336 413.32195,497.9336 C 414.18259,497.9336 416.58985,498.8464 418.67141,499.96205 C 420.75296,501.0777 422.95333,501.68317 423.56111,501.30754 C 424.20327,500.91066 424.38499,501.07953 423.99492,501.71067 C 423.62574,502.30802 424.15488,503.39005 425.17078,504.11518 C 429.87764,507.47483 427.52076,512.58128 422.71624,509.43323 C 420.52105,507.99489 420.35714,508.02033 420.35714,509.79944 C 420.35714,512.6325 417.10641,511.93176 415.51737,508.75614 C 414.7805,507.28354 413.44108,505.79605 412.5409,505.45062 C 411.38427,505.00678 411.55725,505.51771 413.13067,507.19253 C 415.67426,509.90006 416.01731,511.9336 413.93046,511.9336 C 413.14579,511.9336 412.29349,512.7211 412.03646,513.6836 C 411.65728,515.10352 411.41492,514.96206 410.75151,512.9336 L 409.93389,510.4336 L 409.39551,513.3511 C 409.09941,514.95573 408.18214,516.45249 407.35714,516.67723 C 406.02381,517.04046 406.02381,516.95783 407.35714,515.9336 C 408.69047,514.90937 408.69047,514.82635 407.35714,515.18644 C 406.53214,515.40924 405.34556,516.60878 404.72031,517.85207 C 403.92402,519.43543 403.42344,519.71134 403.04925,518.7731 C 402.74864,518.01935 402.48051,518.40378 402.43609,519.65222 C 402.3792,521.25101 401.91465,521.70103 400.77329,521.26305 C 399.63218,520.82516 399.52229,520.44956 400.38019,519.91936 C 401.99704,518.92009 400.69633,513.27774 398.66986,512.50011 C 397.25585,511.9575 397.25335,512.12624 398.64388,514.24847 C 400.52896,517.12546 399.38749,519.4363 396.4595,518.67062 C 393.62883,517.93038 393.76979,518.38023 397.9776,523.5153 C 399.96886,525.94537 401.09386,527.9336 400.4776,527.9336 C 399.86135,527.9336 399.35714,528.6086 399.35714,529.4336 C 399.35714,530.2586 398.92126,530.9336 398.38853,530.9336 C 397.85579,530.9336 397.66147,530.30412 397.9567,529.53475 C 398.25193,528.76538 398.01281,527.83883 397.42531,527.47573 C 396.83586,527.11143 396.35714,527.54071 396.35714,528.4336 C 396.35714,529.32352 395.90396,529.77155 395.35008,529.42924 C 394.79619,529.08692 394.07305,529.51036 393.74309,530.37022 C 393.41313,531.23008 392.65131,531.9336 392.05015,531.9336 C 391.31891,531.9336 391.35432,531.53642 392.15714,530.7336 C 392.81714,530.0736 393.35025,529.0611 393.34183,528.4836 C 393.33341,527.9061 392.9177,528.07966 392.41804,528.8693 C 391.66514,530.05914 391.23965,530.08098 389.93335,528.99685 C 388.60469,527.89416 388.35714,527.95279 388.35714,529.37017 C 388.35714,530.29498 388.80714,530.77352 389.35714,530.4336 C 389.90714,530.09368 390.35714,530.23587 390.35714,530.74958 C 390.35714,531.26329 389.19839,531.6836 387.78214,531.6836 C 385.94571,531.6836 385.51547,531.37527 386.28214,530.6086 z M 387.60714,518.35027 C 387.92797,518.02943 387.29047,516.86693 386.19047,515.76693 C 383.74572,513.32218 382.73851,513.97016 384.5284,516.83622 C 385.88053,519.00132 386.60152,519.35589 387.60714,518.35027 z M 394.35714,515.9336 C 394.35714,515.3836 393.88058,514.9336 393.29812,514.9336 C 392.71566,514.9336 392.51722,515.3836 392.85714,515.9336 C 393.19706,516.4836 393.67362,516.9336 393.91616,516.9336 C 394.1587,516.9336 394.35714,516.4836 394.35714,515.9336 z M 395.22424,513.03849 C 393.92234,511.39166 392.46454,510.01936 391.9847,509.98893 C 391.50485,509.9585 391.63613,510.56484 392.27643,511.33635 C 392.91673,512.10787 393.08433,512.93412 392.64888,513.17246 C 392.21342,513.4108 392.42368,513.46714 393.11611,513.29765 C 393.80855,513.12816 394.91652,513.85644 395.57826,514.91606 C 396.24,515.97568 396.96366,516.66041 397.18639,516.43768 C 397.40912,516.21496 396.52615,514.68532 395.22424,513.03849 z M 403.85714,507.9336 C 403.51722,507.3836 403.04066,506.9336 402.79812,506.9336 C 402.55558,506.9336 402.35714,507.3836 402.35714,507.9336 C 402.35714,508.4836 402.8337,508.9336 403.41616,508.9336 C 403.99862,508.9336 404.19706,508.4836 403.85714,507.9336 z M 424.54047,506.71693 C 423.82291,505.99937 423.35714,505.94033 423.35714,506.56693 C 423.35714,507.90171 424.53975,509.08432 425.20714,508.41693 C 425.49131,508.13277 425.19131,507.36777 424.54047,506.71693 z M 400.35714,507.54059 C 400.35714,507.32443 399.65877,506.87959 398.8052,506.55204 C 397.91528,506.21055 397.51388,506.37819 397.86422,506.94505 C 398.45148,507.89526 400.35714,508.3505 400.35714,507.54059 z M 406.35714,506.4336 C 405.67245,505.6086 404.60485,504.94791 403.9847,504.9654 C 403.36454,504.9829 403.73065,505.6579 404.79827,506.4654 C 407.29194,508.35152 407.93793,508.33834 406.35714,506.4336 z M 419.35714,505.87458 C 419.35714,505.29212 418.90714,505.09368 418.35714,505.4336 C 417.80714,505.77352 417.35714,506.25008 417.35714,506.49262 C 417.35714,506.73516 417.80714,506.9336 418.35714,506.9336 C 418.90714,506.9336 419.35714,506.45704 419.35714,505.87458 z M 381.35714,500.87458 C 381.35714,500.29212 380.90714,500.09368 380.35714,500.4336 C 379.80714,500.77352 379.35714,501.25008 379.35714,501.49262 C 379.35714,501.73516 379.80714,501.9336 380.35714,501.9336 C 380.90714,501.9336 381.35714,501.45704 381.35714,500.87458 z M 411.35714,501.54059 C 411.35714,501.32443 410.65877,500.87959 409.8052,500.55204 C 408.91528,500.21055 408.51388,500.37819 408.86422,500.94505 C 409.45148,501.89526 411.35714,502.3505 411.35714,501.54059 z M 415.35714,501.04059 C 415.35714,500.54943 414.61849,499.86413 413.7157,499.5177 C 412.34322,498.99103 412.28136,499.13736 413.33814,500.41071 C 414.77827,502.14595 415.35714,502.32655 415.35714,501.04059 z M 384.35714,490.04059 C 384.35714,489.0269 381.31135,487.64605 380.61388,488.34353 C 380.36252,488.59488 380.45349,489.28048 380.81602,489.86707 C 381.61383,491.15795 384.35714,491.29238 384.35714,490.04059 z M 383.35714,485.9336 C 383.35714,485.3836 382.90714,484.9336 382.35714,484.9336 C 381.80714,484.9336 381.35714,485.3836 381.35714,485.9336 C 381.35714,486.4836 381.80714,486.9336 382.35714,486.9336 C 382.90714,486.9336 383.35714,486.4836 383.35714,485.9336 z M 373.6432,528.04408 C 372.69128,526.50097 372.69128,525.96934 373.6432,525.58104 C 374.4337,525.25859 374.50777,524.79769 373.85555,524.25973 C 373.30467,523.80536 372.24117,522.24288 371.4922,520.78756 C 370.68956,519.22793 368.32937,517.39878 365.7438,516.33254 C 362.25939,514.89563 361.33328,514.00011 361.24114,511.97858 C 361.16291,510.26232 360.97545,510.00744 360.66546,511.19584 C 360.05546,513.53433 358.36562,512.3997 358.32534,509.62458 C 358.29376,507.44957 358.28192,507.44817 356.70036,509.4336 C 355.12871,511.40658 355.11438,511.40319 355.63891,509.18222 C 355.93135,507.94396 355.76259,507.18302 355.26388,507.49124 C 354.76517,507.79946 354.35714,508.72663 354.35714,509.55163 C 354.35714,510.37663 353.96749,510.81082 353.49125,510.51648 C 353.01501,510.22215 352.84371,508.83911 353.11058,507.44306 C 353.49842,505.4142 353.27082,505.0295 351.97647,505.52618 C 351.08502,505.86826 350.35714,505.64999 350.35714,505.04059 C 350.35714,504.43175 349.26964,503.9336 347.94047,503.9336 C 346.61131,503.9336 345.3437,503.39326 345.12356,502.73285 C 344.81211,501.79853 344.55865,501.79853 343.98121,502.73285 C 343.57305,503.39326 343.71566,503.9336 344.29812,503.9336 C 344.88058,503.9336 345.35714,504.4211 345.35714,505.01693 C 345.35714,505.61277 344.79989,505.91452 344.11882,505.68749 C 343.43774,505.46047 342.87524,503.64613 342.86882,501.65564 C 342.85656,497.85791 344.80524,496.33575 347.49644,498.04086 C 348.24483,498.51502 350.20714,498.85582 351.85714,498.7982 C 354.50335,498.70577 354.35594,498.57289 350.60714,497.67143 C 348.26964,497.10933 346.35714,496.21523 346.35714,495.68453 C 346.35714,495.15383 347.05551,494.98761 347.90908,495.31516 C 348.799,495.65665 349.2004,495.48901 348.85006,494.92215 C 348.51404,494.37845 349.05316,493.91474 350.04812,493.89168 C 351.26706,493.86344 350.78462,493.27782 348.56914,492.09635 C 346.76074,491.13197 345.58241,490.04167 345.95062,489.67345 C 346.31884,489.30524 347.35323,489.39632 348.24927,489.87587 C 350.19785,490.91872 355.35714,490.0983 355.35714,488.74559 C 355.35714,488.22043 356.06723,488.50083 356.93512,489.36872 C 357.803,490.23661 359.34984,491.39451 360.37252,491.94183 C 362.06342,492.84678 362.1876,492.59695 361.74268,489.18528 L 361.25341,485.4336 L 362.80044,488.78691 C 363.65131,490.63124 364.08057,492.57209 363.75434,493.09993 C 363.42813,493.62776 363.82707,494.81877 364.6409,495.74661 C 365.45472,496.67446 366.45946,498.5586 366.87364,499.9336 C 367.99586,503.65911 369.4948,504.07711 372.00797,501.36535 C 373.24749,500.02789 374.84563,498.94361 375.55939,498.95584 C 376.28421,498.96826 375.8811,499.74085 374.64631,500.70584 C 371.40885,503.23592 367.26929,514.34199 370.25047,512.49953 C 370.7418,512.19587 371.4814,513.18181 371.89403,514.69051 L 372.64428,517.4336 L 373.45236,514.9336 C 374.22999,512.52783 374.25649,512.54667 374.15543,515.4336 C 374.09767,517.0836 374.38344,520.06215 374.79049,522.05261 C 375.19754,524.04306 375.37905,526.64819 375.19386,527.84177 C 374.86425,529.9661 374.83151,529.97038 373.6432,528.04408 z M 368.35714,508.9336 C 368.35714,508.3836 368.46964,507.639 368.60714,507.27893 C 368.74464,506.91886 368.02841,506.50263 367.01551,506.35397 C 364.42636,505.97396 364.15714,505.52091 364.15714,501.54394 C 364.15714,497.59315 360.19087,492.58216 356.18709,491.47458 C 353.93193,490.85073 353.91945,490.87985 355.79827,492.38182 C 356.86589,493.2353 358.10339,493.9336 358.54827,493.9336 C 358.99315,493.9336 359.35714,494.65738 359.35714,495.54201 C 359.35714,496.79462 358.7488,497.00018 356.60714,496.47125 C 354.79577,496.02389 354.19846,496.12865 354.85714,496.77816 C 355.40714,497.32051 356.94689,497.91485 358.27881,498.09892 C 359.61073,498.283 360.89596,499.02679 361.13488,499.75179 C 361.37607,500.4837 360.96614,500.93148 360.2132,500.75858 C 359.46737,500.58731 358.63214,500.89412 358.35714,501.44039 C 358.08214,501.98665 358.86964,502.5774 360.10714,502.75315 C 362.48722,503.09118 363.04666,504.84408 361.3242,506.56654 C 360.61361,507.27713 361.00371,507.5736 362.5742,507.51654 C 363.89896,507.46841 364.75221,507.95824 364.60714,508.6836 C 364.46964,509.3711 365.25714,509.9336 366.35714,509.9336 C 367.45714,509.9336 368.35714,509.4836 368.35714,508.9336 z M 358.5457,503.89465 C 357.34199,502.77322 356.35714,501.52137 356.35714,501.11275 C 356.35714,500.70414 355.11964,500.30606 353.60714,500.22813 L 350.85714,500.08645 L 353.85714,501.46492 C 355.50714,502.22308 356.18214,502.88399 355.35714,502.9336 C 354.53214,502.98321 355.20714,503.64196 356.85714,504.39749 C 360.94279,506.26827 361.05699,506.23427 358.5457,503.89465 z M 349.35714,502.54059 C 349.35714,502.32443 348.65877,501.87959 347.8052,501.55204 C 346.91528,501.21055 346.51388,501.37819 346.86422,501.94505 C 347.45148,502.89526 349.35714,503.3505 349.35714,502.54059 z M 376.44274,527.4336 C 376.4125,526.3336 376.82398,524.7586 377.35714,523.9336 C 378.21881,522.60027 378.32041,522.60027 378.27154,523.9336 C 378.24131,524.7586 377.82983,526.3336 377.35714,527.4336 C 376.49771,529.4336 376.49771,529.4336 376.44274,527.4336 z M 375.35714,515.49262 C 375.35714,514.63516 375.80714,513.9336 376.35714,513.9336 C 376.90714,513.9336 377.35714,514.35704 377.35714,514.87458 C 377.35714,515.39212 376.90714,516.09368 376.35714,516.4336 C 375.80714,516.77352 375.35714,516.35008 375.35714,515.49262 z M 400.35714,497.54059 C 400.35714,497.32443 401.05551,496.87959 401.90908,496.55204 C 402.799,496.21055 403.2004,496.37819 402.85006,496.94505 C 402.2628,497.89526 400.35714,498.3505 400.35714,497.54059 z M 341.35714,494.84216 C 340.28527,494.08412 340.19788,493.64192 341.05096,493.29286 C 341.70757,493.0242 341.99692,492.15846 341.69397,491.36899 C 341.39103,490.57953 341.59316,489.9336 342.14316,489.9336 C 343.23219,489.9336 344.35714,492.26167 344.35714,494.51539 C 344.35714,496.19472 343.4148,496.29736 341.35714,494.84216 z M 348.62797,488.32943 C 348.96026,487.99714 349.82276,487.96162 350.54464,488.25049 C 351.34237,488.56971 351.10542,488.80667 349.94047,488.85465 C 348.88631,488.89807 348.29568,488.66173 348.62797,488.32943 z"
       id="path2453" />
  </g>
</svg>
